<svg width="100" height="40" viewBox="0 0 100 40" fill="none" xmlns="http://www.w3.org/2000/svg">
<rect width="40" height="40" rx="8" fill="#629E8E"/>
<rect x="28.5338" y="7" width="4" height="16.6662" transform="rotate(23 28.5338 7)" fill="#FBFAF9"/>
<rect x="25.7141" y="22.9307" width="4" height="8.48639" transform="rotate(23 25.7141 22.9307)" fill="#FBFAF9"/>
<rect x="7.00146" y="24.3784" width="22.0322" height="4" transform="rotate(-10 7.00146 24.3784)" fill="#FBFAF9"/>
<rect x="13.5337" y="9" width="4" height="16.7219" transform="rotate(23 13.5337 9)" fill="#FBFAF9"/>
<path d="M48.56 17.08V7H55.14V8.778H50.464V10.934H54.3V12.712H50.464V15.302H55.14V17.08H48.56Z" fill="#2E2E2E"/>
<path d="M56.2578 18.76V15.61C56.6591 15.61 56.9438 15.47 57.1118 15.19C57.2845 14.91 57.4198 14.4107 57.5178 13.692C57.5738 13.2767 57.6205 12.8403 57.6578 12.383C57.6998 11.9257 57.7348 11.4567 57.7628 10.976C57.7908 10.4953 57.8165 10.01 57.8398 9.52H63.6778V15.61H64.4478V18.76H62.6558V17.08H58.0498V18.76H56.2578ZM58.6938 15.61H61.7738V10.99H59.4918C59.4778 11.2467 59.4615 11.5033 59.4428 11.76C59.4288 12.0167 59.4101 12.271 59.3868 12.523C59.3681 12.775 59.3495 13.02 59.3308 13.258C59.3121 13.4913 59.2911 13.7153 59.2678 13.93C59.2258 14.3407 59.1675 14.6743 59.0928 14.931C59.0181 15.1877 58.8851 15.414 58.6938 15.61Z" fill="#2E2E2E"/>
<path d="M72.5753 9.52V17.08H70.7553V12.46L67.3393 17.08H65.8272V9.52H67.6473V13.986L71.0773 9.52H72.5753Z" fill="#2E2E2E"/>
<path d="M74.5226 17.08V9.52H76.4266V12.404H79.5346V9.52H81.4386V17.08H79.5346V14.182H76.4266V17.08H74.5226Z" fill="#2E2E2E"/>
<path d="M86.7979 17.29C86.0373 17.29 85.3699 17.1197 84.7959 16.779C84.2219 16.4383 83.7739 15.9693 83.4519 15.372C83.1346 14.77 82.9759 14.0793 82.9759 13.3C82.9759 12.5113 83.1393 11.8183 83.4659 11.221C83.7926 10.619 84.2429 10.15 84.8169 9.814C85.3909 9.478 86.0513 9.31 86.7979 9.31C87.5586 9.31 88.2259 9.48033 88.7999 9.821C89.3786 10.1617 89.8289 10.633 90.1509 11.235C90.4729 11.8323 90.6339 12.5207 90.6339 13.3C90.6339 14.084 90.4706 14.777 90.1439 15.379C89.8219 15.9763 89.3716 16.4453 88.7929 16.786C88.2189 17.122 87.5539 17.29 86.7979 17.29ZM86.7979 15.512C87.4093 15.512 87.8643 15.3067 88.1629 14.896C88.4663 14.4807 88.6179 13.9487 88.6179 13.3C88.6179 12.628 88.4639 12.0913 88.1559 11.69C87.8526 11.2887 87.3999 11.088 86.7979 11.088C86.3826 11.088 86.0419 11.1813 85.7759 11.368C85.5099 11.5547 85.3116 11.8137 85.1809 12.145C85.0549 12.4763 84.9919 12.8613 84.9919 13.3C84.9919 13.9767 85.1436 14.5157 85.4469 14.917C85.7549 15.3137 86.2053 15.512 86.7979 15.512Z" fill="#2E2E2E"/>
<path d="M95.6873 17.29C94.9126 17.29 94.2289 17.1243 93.6363 16.793C93.0483 16.457 92.5863 15.9973 92.2503 15.414C91.9189 14.826 91.7533 14.154 91.7533 13.398C91.7533 12.572 91.9166 11.8533 92.2433 11.242C92.57 10.6307 93.0203 10.157 93.5943 9.821C94.1683 9.48033 94.8286 9.31 95.5753 9.31C96.3686 9.31 97.0429 9.49667 97.5983 9.87C98.1536 10.2433 98.5643 10.7683 98.8303 11.445C99.0963 12.1217 99.1896 12.9173 99.1103 13.832H97.2273V13.132C97.2273 12.362 97.1036 11.809 96.8563 11.473C96.6136 11.1323 96.2146 10.962 95.6593 10.962C95.0106 10.962 94.5323 11.1603 94.2243 11.557C93.9209 11.949 93.7693 12.53 93.7693 13.3C93.7693 14.0047 93.9209 14.5507 94.2243 14.938C94.5323 15.3207 94.9826 15.512 95.5753 15.512C95.9486 15.512 96.2683 15.4303 96.5343 15.267C96.8003 15.1037 97.0033 14.868 97.1433 14.56L99.0473 15.106C98.7626 15.7967 98.3123 16.3333 97.6963 16.716C97.0849 17.0987 96.4153 17.29 95.6873 17.29ZM93.1813 13.832V12.418H98.1933V13.832H93.1813Z" fill="#2E2E2E"/>
<path d="M52.886 32.29C51.878 32.29 51.0077 32.0707 50.275 31.632C49.547 31.1933 48.9847 30.5797 48.588 29.791C48.196 29.0023 48 28.0853 48 27.04C48 25.9947 48.196 25.0777 48.588 24.289C48.9847 23.5003 49.547 22.8867 50.275 22.448C51.0077 22.0093 51.878 21.79 52.886 21.79C53.894 21.79 54.762 22.0093 55.49 22.448C56.2227 22.8867 56.785 23.5003 57.177 24.289C57.5737 25.0777 57.772 25.9947 57.772 27.04C57.772 28.0853 57.5737 29.0023 57.177 29.791C56.785 30.5797 56.2227 31.1933 55.49 31.632C54.762 32.0707 53.894 32.29 52.886 32.29ZM52.886 30.498C53.5253 30.5073 54.0573 30.3697 54.482 30.085C54.9067 29.8003 55.224 29.3967 55.434 28.874C55.6487 28.3513 55.756 27.74 55.756 27.04C55.756 26.34 55.6487 25.7333 55.434 25.22C55.224 24.7067 54.9067 24.3077 54.482 24.023C54.0573 23.7383 53.5253 23.5913 52.886 23.582C52.2467 23.5727 51.7147 23.7103 51.29 23.995C50.8653 24.2797 50.5457 24.6833 50.331 25.206C50.121 25.7287 50.016 26.34 50.016 27.04C50.016 27.74 50.121 28.3467 50.331 28.86C50.5457 29.3733 50.8653 29.7723 51.29 30.057C51.7147 30.3417 52.2467 30.4887 52.886 30.498Z" fill="#2E2E2E"/>
<path d="M59.1554 32.08L59.1694 24.52H61.1014V28.16L63.6634 24.52H66.0154L63.2854 28.3L66.1974 32.08H63.7194L61.1014 28.44V32.08H59.1554Z" fill="#2E2E2E"/>
<path d="M66.88 32.08V24.52H68.784V27.404H71.892V24.52H73.796V32.08H71.892V29.182H68.784V32.08H66.88Z" fill="#2E2E2E"/>
<path d="M79.1554 32.29C78.3947 32.29 77.7274 32.1197 77.1534 31.779C76.5794 31.4383 76.1314 30.9693 75.8094 30.372C75.492 29.77 75.3334 29.0793 75.3334 28.3C75.3334 27.5113 75.4967 26.8183 75.8234 26.221C76.15 25.619 76.6004 25.15 77.1744 24.814C77.7484 24.478 78.4087 24.31 79.1554 24.31C79.916 24.31 80.5834 24.4803 81.1574 24.821C81.736 25.1617 82.1864 25.633 82.5084 26.235C82.8304 26.8323 82.9914 27.5207 82.9914 28.3C82.9914 29.084 82.828 29.777 82.5014 30.379C82.1794 30.9763 81.729 31.4453 81.1504 31.786C80.5764 32.122 79.9114 32.29 79.1554 32.29ZM79.1554 30.512C79.7667 30.512 80.2217 30.3067 80.5204 29.896C80.8237 29.4807 80.9754 28.9487 80.9754 28.3C80.9754 27.628 80.8214 27.0913 80.5134 26.69C80.21 26.2887 79.7574 26.088 79.1554 26.088C78.74 26.088 78.3994 26.1813 78.1334 26.368C77.8674 26.5547 77.669 26.8137 77.5384 27.145C77.4124 27.4763 77.3494 27.8613 77.3494 28.3C77.3494 28.9767 77.501 29.5157 77.8044 29.917C78.1124 30.3137 78.5627 30.512 79.1554 30.512Z" fill="#2E2E2E"/>
</svg>
